<svg height="18" viewBox="0 0 20 18" xmlns="http://www.w3.org/2000/svg" fill="#7132f5"><path d="M8.79521 0.400024C3.93757 0.400024 0 4.38923 0 9.31008V13.1284C0 13.8308 0.561922 14.3997 1.25558 14.3997C1.94923 14.3997 2.51527 13.8308 2.51527 13.1284V9.31008C2.51527 8.60561 3.07513 8.03662 3.77084 8.03662C4.4645 8.03662 5.02642 8.60561 5.02642 9.31008V13.1284C5.02642 13.8308 5.58834 14.3997 6.282 14.3997C6.97771 14.3997 7.53963 13.8308 7.53963 13.1284V9.31008C7.53963 8.60561 8.10155 8.03662 8.79521 8.03662C9.49092 8.03662 10.0549 8.60561 10.0549 9.31008V13.1284C10.0549 13.8308 10.6168 14.3997 11.3105 14.3997C12.0041 14.3997 12.5661 13.8308 12.5661 13.1284V9.31008C12.5661 8.60561 13.128 8.03662 13.8257 8.03662C14.5194 8.03662 15.0813 8.60561 15.0813 9.31008V13.1284C15.0813 13.8308 15.6432 14.3997 16.339 14.3997C17.0326 14.3997 17.5945 13.8308 17.5945 13.1284V9.31008C17.5945 4.38923 13.6549 0.400024 8.79521 0.400024Z"></path></svg>
