<svg role="img" viewBox="0 0 300 300" xmlns="http://www.w3.org/2000/svg"><title>Foundry</title><g transform="translate(0,300) scale(0.1,-0.1)" fill="#ffffff"><path d="M1382 2993 c-4 -1 -38 -7 -77 -12 -107 -15 -188 -30 -210 -40 -11 -4 -45 -16 -75 -26 -328 -103 -645 -367 -825 -686 -25 -45 -45 -84 -45 -87 0 -3 -11 -28 -24 -56 -13 -28 -32 -76 -41 -106 -10 -30 -22 -64 -26 -75 -9 -20 -22 -88 -40 -205 -27 -173 -4 -475 46 -625 91 -271 198 -450 379 -631 91 -91 261 -224 286 -224 6 0 10 -3 10 -7 0 -5 19 -17 43 -28 23 -10 54 -27 68 -36 14 -10 38 -21 54 -25 16 -4 40 -13 54 -20 14 -8 33 -14 41 -14 9 0 20 -4 25 -8 15 -13 174 -51 295 -70 104 -16 377 -6 470 18 19 5 67 17 105 26 39 10 75 20 80 24 6 4 23 10 40 14 54 13 231 102 321 162 119 78 330 289 408 408 60 90 149 267 162 321 4 17 10 35 14 40 4 6 14 42 24 80 9 39 21 86 26 105 24 93 34 366 18 470 -19 121 -57 280 -70 295 -4 5 -8 16 -8 25 0 8 -6 27 -14 41 -7 14 -16 38 -20 54 -4 16 -15 40 -25 54 -9 14 -26 45 -36 68 -11 24 -23 43 -27 43 -5 0 -8 4 -8 10 0 25 -133 195 -224 286 -158 158 -319 263 -526 341 -132 50 -174 61 -325 84 -61 9 -302 18 -323 12z m334 -68 c410 -61 769 -293 996 -645 132 -202 194 -378 224 -633 18 -150 11 -283 -22 -444 -89 -433 -388 -813 -788 -1004 -173 -82 -307 -119 -517 -140 -190 -19 -451 20 -639 97 -409 166 -727 512 -849 923 -81 271 -80 589 3 851 136 437 493 799 926 939 86 27 204 54 285 64 79 10 288 5 381 -8z M1425 2863 c-34 -8 -75 -54 -75 -85 0 -33 41 -191 78 -302 29 -87 44 -99 107 -89 31 5 40 12 52 41 19 46 63 259 70 343 8 89 -7 99 -127 98 -47 -1 -94 -3 -105 -6z M1037 2748 c-103 -61 -113 -80 -72 -133 53 -70 265 -275 291 -281 18 -5 38 0 63 14 32 19 36 25 34 58 -3 44 -94 313 -118 350 -17 27 -52 44 -89 44 -12 0 -62 -23 -109 -52z M1815 2790 c-35 -13 -44 -32 -106 -221 -61 -183 -61 -183 -34 -206 35 -30 71 -38 101 -23 28 16 263 253 288 292 25 39 10 59 -90 118 -83 49 -117 58 -159 40z M721 2550 c-79 -68 -106 -102 -97 -125 13 -34 329 -241 384 -251 28 -5 38 -2 63 22 16 15 29 34 29 42 0 8 -13 38 -30 68 -38 70 -175 280 -187 287 -6 4 -28 9 -50 13 -38 6 -43 3 -112 -56z M2155 2599 c-17 -5 -42 -25 -56 -47 -39 -54 -189 -303 -189 -312 0 -15 64 -70 82 -70 32 0 176 83 326 189 93 66 93 77 -6 173 -84 81 -96 86 -157 67z M505 2371 c-33 -14 -145 -155 -145 -183 0 -34 99 -91 309 -179 124 -52 136 -51 179 5 22 29 22 29 -14 79 -49 69 -210 253 -237 272 -23 16 -60 19 -92 6z M2423 2368 c-41 -25 -273 -300 -273 -326 0 -23 52 -72 77 -72 34 0 135 42 288 119 157 80 162 88 92 178 -25 32 -56 68 -69 81 -30 28 -85 37 -115 20z M288 2054 c-21 -11 -32 -30 -48 -82 -32 -103 -36 -144 -14 -164 23 -20 193 -38 367 -38 118 0 118 0 133 35 24 58 19 68 -48 107 -123 71 -308 158 -335 158 -16 -1 -40 -7 -55 -16z M2485 1992 c-196 -100 -217 -115 -209 -150 4 -15 13 -37 20 -49 14 -22 21 -23 127 -23 110 0 315 15 350 26 29 9 39 39 27 87 -36 135 -42 148 -73 168 -18 10 -45 19 -62 18 -17 0 -96 -34 -180 -77z M998 2004 c-27 -14 -58 -60 -58 -87 0 -7 62 -64 138 -127 247 -205 663 -551 846 -703 98 -82 184 -151 191 -154 13 -4 70 20 78 34 3 5 8 22 11 39 7 31 3 35 -256 250 -145 120 -407 338 -583 484 -176 146 -325 269 -330 272 -6 3 -22 0 -37 -8z M1752 1833 c-251 -177 -251 -177 -229 -201 12 -13 29 -21 37 -19 9 2 122 83 253 181 220 163 236 177 225 196 -7 11 -18 20 -24 20 -6 0 -124 -80 -262 -177z M2048 1892 c-18 -16 -117 -95 -221 -176 -103 -82 -190 -152 -193 -158 -7 -11 34 -58 52 -58 9 0 350 288 437 370 11 10 -14 50 -30 50 -7 0 -27 -13 -45 -28z M219 1687 c-34 -23 -34 -23 -37 -112 -5 -151 4 -161 118 -139 175 33 323 76 353 102 20 18 23 75 4 91 -16 13 -115 34 -258 56 -57 9 -114 18 -125 20 -12 3 -36 -5 -55 -18z M2605 1675 c-171 -26 -230 -37 -242 -47 -7 -6 -13 -27 -13 -47 0 -55 35 -72 285 -136 178 -46 179 -46 189 87 6 93 6 93 -29 126 -40 36 -51 37 -190 17z M1155 1410 c-99 -71 -195 -146 -213 -167 -42 -47 -69 -137 -81 -265 -8 -81 -14 -105 -31 -123 -27 -29 -61 -38 -95 -25 -23 9 -35 3 -105 -46 -63 -44 -80 -61 -80 -80 0 -28 -25 -42 -49 -27 -20 13 -51 -1 -51 -21 0 -14 57 -46 82 -46 8 0 58 31 111 69 75 53 102 67 122 63 33 -6 106 22 134 52 23 25 70 146 71 183 0 14 18 37 49 63 54 45 66 69 76 145 8 58 18 69 197 213 117 94 117 94 89 118 -16 13 -33 24 -37 24 -5 0 -90 -59 -189 -130z m-131 -259 c19 -21 13 -47 -15 -62 -14 -7 -23 -5 -39 11 -11 11 -18 26 -14 33 24 42 42 47 68 18z M1374 1359 c-49 -39 -123 -98 -165 -130 -59 -46 -80 -69 -93 -103 -9 -24 -28 -53 -41 -66 -14 -13 -25 -27 -25 -32 0 -12 72 -9 97 5 12 7 108 86 213 176 192 165 192 165 159 193 -19 15 -39 28 -45 28 -6 0 -51 -32 -100 -71z M2275 1158 c-80 -87 -79 -86 -62 -103 20 -20 13 -71 -15 -102 -30 -32 -76 -49 -99 -35 -16 10 -25 3 -73 -55 -31 -37 -56 -75 -56 -84 0 -23 41 -119 50 -119 12 0 440 512 435 520 -2 4 -37 8 -77 9 -71 2 -74 1 -103 -31z M2393 1063 c-50 -60 -152 -182 -228 -272 -134 -160 -137 -164 -118 -180 11 -9 55 -45 98 -80 77 -64 77 -64 103 -30 15 19 43 52 62 74 96 108 360 427 360 436 0 7 -175 159 -183 159 -2 0 -45 -48 -94 -107z M740 1124 c-111 -37 -138 -63 -149 -147 -6 -51 -6 -52 -101 -124 -52 -40 -95 -77 -94 -83 1 -5 2 -20 3 -32 1 -13 5 -30 11 -38 7 -12 12 -12 29 4 11 10 17 24 14 32 -9 24 17 46 48 39 23 -5 39 2 94 46 36 29 65 55 65 58 1 3 2 32 3 64 2 49 6 62 27 79 21 17 35 20 87 15 68 -5 64 -8 78 61 7 32 7 32 -47 31 -29 0 -60 -3 -68 -5z M1540 926 c0 -2 9 -25 20 -51 37 -86 18 -184 -41 -215 -18 -10 -25 -9 -41 8 -21 21 -48 115 -48 170 0 17 -4 32 -9 32 -15 0 -51 -70 -62 -122 -10 -43 -8 -58 11 -109 23 -66 20 -92 -15 -115 -50 -33 -104 29 -91 106 8 50 -8 53 -50 9 -27 -28 -29 -36 -29 -102 0 -92 34 -166 106 -231 61 -55 131 -80 219 -79 153 3 283 119 308 277 11 67 5 77 -18 33 -23 -43 -60 -61 -94 -46 -31 14 -34 53 -11 119 8 23 15 59 15 79 0 49 -42 132 -93 182 -39 38 -77 65 -77 55z"/></g></svg>
