<svg xmlns="http://www.w3.org/2000/svg" viewBox="0 0 24 24" fill="none">
  <path d="M12 2C8 2 5 5 5 9c0 2 1 4 2 5l1 6c0 1 1 2 2 2h4c1 0 2-1 2-2l1-6c1-1 2-3 2-5 0-4-3-7-7-7z" stroke="#336791" stroke-width="2" stroke-linecap="round" stroke-linejoin="round"/>
  <ellipse cx="9" cy="8" rx="1.5" ry="2" fill="#336791"/>
  <path d="M12 12c-2 0-3 1-3 2s1 2 3 2" stroke="#336791" stroke-width="2" stroke-linecap="round"/>
  <path d="M17 9c1 0 2 1 2 2s-1 3-2 4" stroke="#336791" stroke-width="2" stroke-linecap="round"/>
</svg>
