<svg xmlns="http://www.w3.org/2000/svg" viewBox="0 0 24 24" fill="none">
  <rect x="2" y="2" width="20" height="20" rx="2" fill="#3178C6"/>
  <path d="M7 11h8v2h-3v7h-2v-7H7v-2z" fill="white"/>
  <path d="M15 17.5c0 .5.2.9.5 1.2.3.3.8.5 1.3.5.4 0 .8-.1 1-.3.3-.2.4-.5.4-.8 0-.2-.1-.4-.2-.6-.1-.2-.4-.3-.7-.5l-1-.4c-.6-.2-1-.5-1.3-.9-.3-.4-.5-.9-.5-1.4 0-.7.3-1.3.8-1.7.5-.4 1.1-.6 1.9-.6.7 0 1.3.2 1.8.5.5.4.7.9.8 1.5h-1.6c0-.3-.2-.5-.4-.7-.2-.2-.5-.3-.8-.3-.3 0-.6.1-.8.3-.2.2-.3.4-.3.7 0 .2.1.4.2.5.2.2.4.3.8.5l1 .4c.6.2 1 .5 1.3.9.3.4.4.8.4 1.4 0 .7-.3 1.3-.8 1.8-.5.4-1.2.6-2 .6-.8 0-1.5-.2-2-.6-.5-.4-.8-1-.8-1.8h1.8z" fill="white"/>
</svg>
